<?xml version="1.0" standalone="no"?>
<!DOCTYPE svg PUBLIC "-//W3C//DTD SVG 20010904//EN"
 "http://www.w3.org/TR/2001/REC-SVG-20010904/DTD/svg10.dtd">
<svg version="1.0" xmlns="http://www.w3.org/2000/svg"
 width="700.000000pt" height="700.000000pt" viewBox="0 0 700.000000 700.000000"
 preserveAspectRatio="xMidYMid meet">
<metadata>
Created by potrace 1.11, written by Peter Selinger 2001-2013
</metadata>
<g transform="translate(0.000000,700.000000) scale(0.100000,-0.100000)"
fill="#000000" stroke="none">
<path d="M0 3500 l0 -3500 3500 0 3500 0 0 3500 0 3500 -3500 0 -3500 0 0
-3500z m3421 1694 c584 -99 1050 -567 1145 -1152 23 -141 20 -350 -6 -485 -34
-177 -102 -346 -203 -505 l-40 -64 441 -441 442 -442 -152 -153 -153 -152
-442 442 -442 442 -54 -36 c-145 -97 -363 -183 -537 -213 -125 -22 -345 -22
-469 0 -584 102 -1047 566 -1146 1149 -20 115 -19 347 0 462 36 208 136 443
258 604 81 106 228 249 330 318 176 121 402 208 612 235 85 11 329 6 416 -9z"/>
<path d="M3100 4774 c-247 -30 -418 -112 -590 -284 -196 -196 -284 -404 -284
-675 0 -327 156 -618 430 -800 165 -111 325 -159 529 -159 205 0 378 53 539
164 202 140 339 337 398 576 30 123 30 312 0 437 -88 359 -363 634 -717 717
-81 19 -240 32 -305 24z"/>
</g>
</svg>
