<svg width="396" height="394" viewBox="0 0 396 394" fill="none" xmlns="http://www.w3.org/2000/svg">
<path d="M337.774 55.762H0V394H337.774V55.762Z" fill="#D9E8F6"/>
<path d="M396 0H58.2256V338.238H396V0Z" fill="#73B3E7"/>
<path d="M125.78 33.8237L92.0029 67.6475H125.78V101.471L159.558 67.6475V33.8237H125.78Z" fill="#E41D3D"/>
<path d="M227.113 33.8237L193.336 67.6475H227.113V101.471L260.891 67.6475V33.8237H227.113Z" fill="#E41D3D"/>
<path d="M328.445 33.8237L294.668 67.6475H328.445V101.471L362.223 67.6475V33.8237H328.445Z" fill="#E41D3D"/>
<path d="M125.78 135.295L92.0029 169.119H125.78V202.943L159.558 169.119V135.295H125.78Z" fill="#E41D3D"/>
<path d="M227.113 135.295L193.336 169.119H227.113V202.943L260.891 169.119V135.295H227.113Z" fill="#E41D3D"/>
<path d="M328.445 135.295L294.668 169.119H328.445V202.943L362.223 169.119V135.295H328.445Z" fill="#E41D3D"/>
<path d="M125.78 236.767L92.0029 270.59H125.78V304.414L159.558 270.59V236.767H125.78Z" fill="#E41D3D"/>
<path d="M227.113 236.767L193.336 270.59H227.113V304.414L260.891 270.59V236.767H227.113Z" fill="#E41D3D"/>
<path d="M328.445 236.767L294.668 270.59H328.445V304.414L362.223 270.59V236.767H328.445Z" fill="#E41D3D"/>
</svg>
