<svg version="1.1" viewBox="0.0 0.0 379.0 374.0" fill="none" stroke="none" stroke-linecap="square" stroke-miterlimit="10" width="379" height="374" xmlns:xlink="http://www.w3.org/1999/xlink" xmlns="http://www.w3.org/2000/svg"><path fill="#ffffff" d="M0 0L379.0 0L379.0 374.0L0 374.0L0 0Z" fill-rule="nonzero"/><path fill="#aacdec" d="M189.5 18.7C245.89124 18.7 298.53494 46.941998 329.721 93.92498C360.90707 140.90797 366.4905 200.38733 344.59296 252.35338L248.43532 211.83429C256.7564 192.08719 254.63469 169.48503 242.78398 151.6315C230.93327 133.77795 210.92867 123.046 189.5 123.046Z" fill-rule="nonzero"/><path fill="#1a4480" d="M182.93564 18.828068C185.12271 18.742697 187.31125 18.7 189.5 18.7L189.5 123.046C188.66827 123.046 187.83662 123.062225 187.00554 123.094666Z" fill-rule="nonzero"/><path fill="#dfe1e2" d="M175.93231 19.247778C178.26358 19.059227 180.59853 18.919292 182.93564 18.828068L187.00554 123.094666C186.11745 123.12933 185.23016 123.1825 184.34428 123.25416Z" fill-rule="nonzero"/><path fill="#86b98e" d="M168.93037 19.96174C171.25912 19.67497 173.59361 19.436932 175.93231 19.247778L184.34428 123.25416C183.45557 123.326035 182.56847 123.41649 181.68355 123.52546Z" fill-rule="nonzero"/><path fill="#eff6fb" d="M161.91742 20.97563C164.2477 20.588488 166.58586 20.25045 168.93037 19.96174L181.68355 123.52546C180.79263 123.63517 179.90413 123.763626 179.01862 123.910736Z" fill-rule="nonzero"/><path fill="#aacdec" d="M154.66313 22.344957C157.07092 21.83553 159.48961 21.378977 161.91742 20.97563L179.01862 123.910736C178.09605 124.06401 177.17696 124.2375 176.262 124.43108Z" fill-rule="nonzero"/><path fill="#1a4480" d="M147.17374 24.109306C149.65643 23.464193 152.15355 22.875923 154.66313 22.344957L176.262 124.43108C175.30835 124.63285 174.35945 124.85639 173.41602 125.10154Z" fill-rule="nonzero"/><path fill="#dfe1e2" d="M139.03123 26.445356C141.72537 25.59848 144.4404 24.81955 147.17374 24.109306L173.41602 125.10154C172.37735 125.37143 171.34564 125.66742 170.32187 125.989235Z" fill-rule="nonzero"/><path fill="#86b98e" d="M130.56387 29.356659C133.36002 28.311304 136.18346 27.340525 139.03123 26.445356L170.32187 125.989235C169.23972 126.3294 168.16681 126.698296 167.10428 127.09553Z" fill-rule="nonzero"/><path fill="#eff6fb" d="M120.45355 33.515545C123.77773 32.02013 127.14962 30.633102 130.56387 29.356659L167.10428 127.09553C165.80685 127.58058 164.52554 128.10765 163.26234 128.6759Z" fill-rule="nonzero"/><path fill="#aacdec" d="M109.66975 38.837856C113.1998 36.935856 116.79669 35.160618 120.45355 33.515545L163.26234 128.6759C161.87274 129.30104 160.50592 129.97563 159.1645 130.69838Z" fill-rule="nonzero"/><path fill="#1a4480" d="M99.11681 45.028984C102.55826 42.83805 106.078224 40.77298 109.66975 38.837856L159.1645 130.69838C157.79973 131.43373 156.46214 132.21846 155.15439 133.05101Z" fill-rule="nonzero"/><path fill="#dfe1e2" d="M88.823044 52.13325C92.16509 49.63844 95.59872 47.26871 99.11681 45.028984L155.15439 133.05101C153.81752 133.90211 152.51274 134.80261 151.24275 135.75064Z" fill-rule="nonzero"/><path fill="#86b98e" d="M79.02858 60.031677C82.19381 57.277706 85.46091 54.643055 88.823044 52.13325L151.24275 135.75064C149.96515 136.70436 148.72365 137.70552 147.52086 138.75204Z" fill-rule="nonzero"/><path fill="#eff6fb" d="M69.54333 68.95219C72.58882 65.857445 75.752945 62.881714 79.02858 60.031677L147.52086 138.75204C146.27612 139.83505 145.07375 140.96582 143.91646 142.14183Z" fill-rule="nonzero"/><path fill="#aacdec" d="M58.376816 81.4936C61.88798 77.12993 65.61479 72.944244 69.54333 68.95219L143.91646 142.14183C142.42361 143.65881 141.00743 145.24937 139.67319 146.90756Z" fill-rule="nonzero"/><path fill="#1a4480" d="M48.2044 95.564545C51.35084 90.70233 54.746166 86.00577 58.376816 81.4936L139.67319 146.90756C138.29355 148.6222 137.00333 150.40689 135.80768 152.25453Z" fill-rule="nonzero"/><path fill="#dfe1e2" d="M38.953053 111.76366C41.734978 106.19707 44.8235 100.789055 48.2044 95.564545L135.80768 152.25453C134.52293 154.23984 133.34929 156.29489 132.29216 158.41019Z" fill-rule="nonzero"/><path fill="#86b98e" d="M31.091066 130.15372C33.344856 123.87327 35.970154 117.73241 38.953053 111.76366L132.29216 158.41019C131.15866 160.67831 130.16104 163.01184 129.30461 165.3984Z" fill-rule="nonzero"/><path fill="#eff6fb" d="M25.395065 149.65752C26.899199 143.04747 28.80133 136.53433 31.091066 130.15372L129.30461 165.3984C128.43451 167.82304 127.71169 170.29803 127.14012 172.80986Z" fill-rule="nonzero"/><path fill="#aacdec" d="M21.319025 180.67154C21.71195 170.22942 23.076523 159.84657 25.395065 149.65752L127.14012 172.80986C126.25908 176.6817 125.74054 180.62718 125.59123 184.59518Z" fill-rule="nonzero"/><path fill="#1a4480" d="M24.769289 221.47728C21.962486 208.06651 20.803823 194.36319 21.319025 180.67154L125.59123 184.59518C125.395454 189.798 125.83575 195.00528 126.90233 200.10136Z" fill-rule="nonzero"/><path fill="#dfe1e2" d="M38.869537 262.069C32.45433 249.19649 27.715631 235.55476 24.769289 221.47728L126.90233 200.10136C128.02194 205.4508 129.82265 210.63467 132.26042 215.52621Z" fill-rule="nonzero"/><path fill="#86b98e" d="M71.666435 307.16714C58.30248 294.0627 47.218067 278.82083 38.869537 262.069L132.26042 215.52621C135.43286 221.8919 139.64494 227.68382 144.72325 232.66351Z" fill-rule="nonzero"/><path fill="#eff6fb" d="M344.59296 252.35338C322.95013 303.71494 277.2833 341.03055 222.63914 352.00513C167.995 362.97968 111.461754 346.18967 71.666435 307.16714L144.72325 232.66351C159.84546 247.49207 181.3281 253.87228 202.09288 249.70195C222.85765 245.5316 240.21104 231.35168 248.43532 211.83429Z" fill-rule="nonzero"/></svg>