<svg version="1.1" viewBox="0.0 0.0 379.0 374.0" fill="none" stroke="none" stroke-linecap="square" stroke-miterlimit="10" width="379" height="374" xmlns:xlink="http://www.w3.org/1999/xlink" xmlns="http://www.w3.org/2000/svg"><path fill="#ffffff" d="M0 0L379.0 0L379.0 374.0L0 374.0L0 0Z" fill-rule="nonzero"/><path fill="#aacdec" d="M189.5 18.7C249.28609 18.7 304.58438 50.417236 334.7713 102.02271C364.95822 153.62819 365.50186 217.37448 336.19946 269.4873L245.2458 218.34517C256.3807 198.5423 256.17413 174.31871 244.7031 154.70863C233.23207 135.09856 212.2187 123.046 189.5 123.046Z" fill-rule="nonzero"/><path fill="#eff6fb" d="M336.19946 269.4873C325.45804 288.5904 311.08896 305.41168 293.89917 319.00647L229.17168 237.16246C235.7038 231.99643 241.16405 225.60435 245.2458 218.34517Z" fill-rule="nonzero"/><path fill="#86b98e" d="M293.89917 319.00647C280.29608 329.76465 265.11185 338.35562 248.88423 344.4751L212.06601 246.84053C218.2325 244.51514 224.0025 241.25056 229.17168 237.16246Z" fill-rule="nonzero"/><path fill="#dfe1e2" d="M248.88423 344.4751C236.15918 349.27374 222.89941 352.5123 209.39499 354.11996L197.06009 250.50558C202.19177 249.89467 207.23048 248.66402 212.06601 246.84053Z" fill-rule="nonzero"/><path fill="#1a4480" d="M171.76588 19.636948C177.65665 19.01275 183.57626 18.7 189.5 18.7L189.5 123.046C187.24898 123.046 184.99953 123.16485 182.76103 123.40204Z" fill-rule="nonzero"/><path fill="#dfe1e2" d="M154.18275 22.447329C159.9901 21.200922 165.85936 20.262815 171.76588 19.636948L182.76103 123.40204C180.51656 123.63987 178.28624 123.99635 176.07944 124.469986Z" fill-rule="nonzero"/><path fill="#86b98e" d="M136.5199 27.256458C142.31592 25.33417 148.21225 23.728752 154.18275 22.447329L176.07944 124.469986C173.81065 124.956924 171.57005 125.566986 169.36757 126.297455Z" fill-rule="nonzero"/><path fill="#eff6fb" d="M119.35354 34.015152C124.947784 31.450083 130.67851 29.193798 136.5199 27.256458L169.36757 126.297455C167.14783 127.033646 164.97015 127.89103 162.84435 128.86575Z" fill-rule="nonzero"/><path fill="#aacdec" d="M101.82451 43.341034C107.4789 39.890144 113.33209 36.7761 119.35354 34.015152L162.84435 128.86575C160.5562 129.91492 158.33199 131.09825 156.18332 132.40959Z" fill-rule="nonzero"/><path fill="#1a4480" d="M85.13004 54.97045C90.455246 50.760853 96.03025 46.877285 101.82451 43.341034L156.18332 132.40959C153.98149 133.75337 151.86299 135.22913 149.83942 136.82877Z" fill-rule="nonzero"/><path fill="#dfe1e2" d="M68.689255 69.82639C73.83722 64.51863 79.329384 59.555897 85.13004 54.97045L149.83942 136.82877C147.63516 138.57124 145.54814 140.45708 143.59192 142.47403Z" fill-rule="nonzero"/><path fill="#86b98e" d="M54.284153 86.79239C58.706245 80.82541 63.518467 75.15769 68.689255 69.82639L143.59192 142.47403C141.62701 144.49992 139.79837 146.65366 138.11798 148.92111Z" fill-rule="nonzero"/><path fill="#eff6fb" d="M41.678448 106.540825C45.4165 99.67318 49.62861 93.07439 54.284153 86.79239L138.11798 148.92111C136.34888 151.30827 134.74828 153.81581 133.3278 156.4255Z" fill-rule="nonzero"/><path fill="#aacdec" d="M31.616459 128.7104C34.43085 121.087326 37.793644 113.678085 41.678448 106.540825L133.3278 156.4255C131.85158 159.13766 130.57373 161.95319 129.50426 164.84995Z" fill-rule="nonzero"/><path fill="#1a4480" d="M24.476538 153.95235C26.19616 145.36542 28.583382 136.92581 31.616459 128.7104L129.50426 164.84995C128.35168 167.9718 127.44454 171.17886 126.791084 174.4419Z" fill-rule="nonzero"/><path fill="#dfe1e2" d="M21.282381 181.73479C21.574514 172.4014 22.642921 163.10852 24.476538 153.95235L126.791084 174.4419C126.09431 177.92123 125.68832 181.45253 125.5773 184.99922Z" fill-rule="nonzero"/><path fill="#86b98e" d="M22.762083 209.877C21.482954 200.55412 20.987986 191.1404 21.282381 181.73479L125.5773 184.99922C125.46543 188.57335 125.65353 192.15057 126.139595 195.69327Z" fill-rule="nonzero"/><path fill="#eff6fb" d="M28.92851 237.41515C26.105715 228.42458 24.04299 219.21283 22.762083 209.877L126.139595 195.69327C126.626335 199.24088 127.41017 202.74135 128.48283 206.15776Z" fill-rule="nonzero"/><path fill="#aacdec" d="M39.668858 263.65192C35.35721 255.22397 31.764347 246.44725 28.92851 237.41515L128.48283 206.15776C129.56046 209.58995 130.92574 212.92511 132.56416 216.12773Z" fill-rule="nonzero"/><path fill="#1a4480" d="M55.081497 288.27466C49.24391 280.5266 44.087162 272.28836 39.668858 263.65192L132.56416 216.12773C134.24312 219.40958 136.20268 222.54012 138.42097 225.48438Z" fill-rule="nonzero"/><path fill="#dfe1e2" d="M76.335884 311.57437C68.537415 304.49017 61.421383 296.6894 55.081497 288.27466L138.42097 225.48438C140.83012 228.68196 143.53421 231.64627 146.49763 234.33826Z" fill-rule="nonzero"/><path fill="#86b98e" d="M103.894005 331.9017C94.04073 326.0805 84.80691 319.2695 76.335884 311.57437L146.49763 234.33826C149.71663 237.2624 153.22548 239.8506 156.96973 242.06265Z" fill-rule="nonzero"/><path fill="#eff6fb" d="M135.41148 346.37164C124.43541 342.6465 113.87352 337.79745 103.894005 331.9017L156.96973 242.06265C160.76193 244.30304 164.77545 246.14568 168.94637 247.56123Z" fill-rule="nonzero"/><path fill="#aacdec" d="M171.50258 354.33493C159.21635 353.01352 147.11302 350.343 135.41148 346.37164L168.94637 247.56123C173.39294 249.07033 177.99222 250.08514 182.66098 250.58728Z" fill-rule="nonzero"/><path fill="#1a4480" d="M209.39499 354.11996C196.81256 355.61786 184.1012 355.68997 171.50258 354.33493L182.66098 250.58728C187.44846 251.10219 192.27878 251.07478 197.06009 250.50558Z" fill-rule="nonzero"/></svg>