<svg version="1.1" viewBox="0.0 0.0 379.0 374.0" fill="none" stroke="none" stroke-linecap="square" stroke-miterlimit="10" width="379" height="374" xmlns:xlink="http://www.w3.org/1999/xlink" xmlns="http://www.w3.org/2000/svg"><path fill="#ffffff" d="M0 0L379.0 0L379.0 374.0L0 374.0L0 0Z" fill-rule="nonzero"/><path fill="#aacdec" d="M189.5 18.7C266.21793 18.7 333.22693 70.5822 352.4379 144.85588C371.6489 219.12955 338.19946 296.99545 271.1028 334.19333L220.50906 242.93346C246.0058 228.79828 258.71658 199.20923 251.41641 170.98523C244.11623 142.76123 218.65282 123.046 189.5 123.046Z" fill-rule="nonzero"/><path fill="#1a4480" d="M182.37604 18.850843C184.74936 18.750292 187.12454 18.7 189.5 18.7L189.5 123.046C188.59732 123.046 187.69476 123.06511 186.7929 123.10332Z" fill-rule="nonzero"/><path fill="#dfe1e2" d="M174.4261 19.376411C177.07156 19.138514 179.72227 18.963274 182.37604 18.850843L186.7929 123.10332C185.78447 123.14604 184.77719 123.21263 183.77191 123.30304Z" fill-rule="nonzero"/><path fill="#86b98e" d="M166.34746 20.300121C169.0325 19.9272 171.72617 19.619207 174.4261 19.376411L183.77191 123.30304C182.74594 123.3953 181.72235 123.51234 180.70203 123.654045Z" fill-rule="nonzero"/><path fill="#eff6fb" d="M157.96664 21.6805C160.74818 21.149942 163.54268 20.689669 166.34746 20.300121L180.70203 123.654045C179.63622 123.80207 178.57431 123.976974 177.51732 124.17859Z" fill-rule="nonzero"/><path fill="#aacdec" d="M149.55576 23.508877C152.34334 22.827812 155.14789 22.218155 157.96664 21.6805L177.51732 124.17859C176.4462 124.3829 175.38046 124.61457 174.32118 124.873375Z" fill-rule="nonzero"/><path fill="#1a4480" d="M140.84285 25.887083C143.72536 25.016548 146.6307 24.223526 149.55576 23.508877L174.32118 124.873375C173.20967 125.14494 172.10564 125.44629 171.01028 125.77709Z" fill-rule="nonzero"/><path fill="#dfe1e2" d="M131.3652 29.059395C134.49231 27.908365 137.65292 26.850462 140.84285 25.887083L171.01028 125.77709C169.79811 126.14317 168.59708 126.54518 167.40878 126.98257Z" fill-rule="nonzero"/><path fill="#86b98e" d="M121.299194 33.137917C124.60978 31.670471 127.96686 30.310255 131.3652 29.059395L167.40878 126.98257C166.1174 127.45789 164.84172 127.97478 163.5837 128.53241Z" fill-rule="nonzero"/><path fill="#eff6fb" d="M111.3634 37.937725C114.62198 36.229618 117.93569 34.628822 121.299194 33.137917L163.5837 128.53241C162.30556 129.09895 161.04636 129.70726 159.80809 130.35634Z" fill-rule="nonzero"/><path fill="#aacdec" d="M101.23408 43.703045C104.542946 41.6649 107.92141 39.741974 111.3634 37.937725L159.80809 130.35634C158.50014 131.04195 157.21632 131.77266 155.95895 132.54715Z" fill-rule="nonzero"/><path fill="#1a4480" d="M91.05066 50.498653C94.361595 48.1107 97.758316 45.843998 101.23408 43.703045L155.95895 132.54715C154.63815 133.36072 153.34741 134.22206 152.08925 135.12949Z" fill-rule="nonzero"/><path fill="#dfe1e2" d="M80.59676 58.684082C83.972374 55.819164 87.45972 53.088562 91.05066 50.498653L152.08925 135.12949C150.72469 136.11365 149.3995 137.15128 148.11678 138.23994Z" fill-rule="nonzero"/><path fill="#86b98e" d="M69.15558 69.3475C72.802 65.61765 76.61985 62.059334 80.59676 58.684082L148.11678 138.23994C146.60555 139.52255 145.15475 140.87471 143.76912 142.29205Z" fill-rule="nonzero"/><path fill="#eff6fb" d="M58.506435 81.33271C61.863735 77.17074 65.41748 73.17113 69.15558 69.3475L143.76912 142.29205C142.34865 143.74503 140.99821 145.26488 139.72244 146.84644Z" fill-rule="nonzero"/><path fill="#aacdec" d="M48.429913 95.21699C51.550537 90.4206 54.913746 85.78649 58.506435 81.33271L139.72244 146.84644C138.35722 148.53886 137.07921 150.29984 135.89337 152.12245Z" fill-rule="nonzero"/><path fill="#1a4480" d="M37.401802 114.95121C40.631393 108.1334 44.31574 101.54046 48.429913 95.21699L135.89337 152.12245C134.32999 154.52538 132.92993 157.03069 131.70268 159.62146Z" fill-rule="nonzero"/><path fill="#dfe1e2" d="M29.068697 136.14052C31.36489 128.8974 34.14896 121.8181 37.401802 114.95121L131.70268 159.62146C130.4666 162.23088 129.40866 164.92102 128.5361 167.6734Z" fill-rule="nonzero"/><path fill="#86b98e" d="M23.492197 159.31789C24.800846 151.47 26.664354 143.7248 29.068697 136.14052L128.5361 167.6734C127.62245 170.55542 126.91432 173.4986 126.41704 176.4808Z" fill-rule="nonzero"/><path fill="#eff6fb" d="M21.200335 186.66441C21.218605 177.50171 21.985106 168.35582 23.492197 159.31789L126.41704 176.4808C125.84434 179.9152 125.55307 183.39066 125.54613 186.87248Z" fill-rule="nonzero"/><path fill="#aacdec" d="M24.86482 221.9306C22.405012 210.33702 21.176702 198.51604 21.200335 186.66441L125.54613 186.87248C125.53715 191.3761 126.00391 195.86807 126.93863 200.27364Z" fill-rule="nonzero"/><path fill="#1a4480" d="M36.185265 256.4225C31.179216 245.36697 27.383661 233.80243 24.86482 221.9306L126.93863 200.27364C127.89579 204.78493 129.3381 209.17946 131.2404 213.38054Z" fill-rule="nonzero"/><path fill="#dfe1e2" d="M58.4037 292.5398C49.504448 281.4856 42.03906 269.3502 36.185265 256.4225L131.2404 213.38054C133.46484 218.29308 136.3017 222.90453 139.68341 227.10513Z" fill-rule="nonzero"/><path fill="#86b98e" d="M103.42055 331.62094C86.20892 321.37646 70.9642 308.14185 58.4037 292.5398L139.68341 227.10513C144.45639 233.0339 150.24939 238.06305 156.78981 241.95596Z" fill-rule="nonzero"/><path fill="#eff6fb" d="M271.1028 334.19333C218.73128 363.2277 154.87683 362.2481 103.42055 331.62094L156.78981 241.95596C176.3432 253.59428 200.60788 253.96652 220.50906 242.93346Z" fill-rule="nonzero"/></svg>