<svg version="1.1" viewBox="0.0 0.0 379.0 374.0" fill="none" stroke="none" stroke-linecap="square" stroke-miterlimit="10" width="379" height="374" xmlns:xlink="http://www.w3.org/1999/xlink" xmlns="http://www.w3.org/2000/svg"><path fill="#ffffff" d="M0 0L379.0 0L379.0 374.0L0 374.0L0 0Z" fill-rule="nonzero"/><path fill="#aacdec" d="M189.5 18.7C243.90154 18.7 294.94797 44.995968 326.53177 89.29031C358.1156 133.58467 366.34106 190.41386 348.61267 241.84567L249.96281 207.84135C256.69962 188.29727 253.57393 166.70218 241.57208 149.87032C229.57022 133.03847 210.17258 123.046 189.5 123.046Z" fill-rule="nonzero"/><path fill="#eff6fb" d="M348.61267 241.84567C338.51096 271.1517 320.51178 297.09857 296.60013 316.8247L230.19804 236.33339C239.28447 228.83745 246.12416 218.97765 249.96281 207.84135Z" fill-rule="nonzero"/><path fill="#86b98e" d="M296.60013 316.8247C275.25214 334.43594 249.89064 346.511 222.76175 351.98044L202.13947 249.69257C212.44844 247.61417 222.08582 243.02565 230.19804 236.33339Z" fill-rule="nonzero"/><path fill="#1a4480" d="M179.80489 18.97948C183.03323 18.7932 186.26628 18.7 189.5 18.7L189.5 123.046C188.2712 123.046 187.04263 123.08141 185.81586 123.15221Z" fill-rule="nonzero"/><path fill="#dfe1e2" d="M170.10672 19.821083C173.33064 19.447096 176.56473 19.166445 179.80489 18.97948L185.81586 123.15221C184.5846 123.22325 183.35565 123.329895 182.13055 123.47201Z" fill-rule="nonzero"/><path fill="#86b98e" d="M160.2626 21.259043C163.5291 20.682821 166.81189 20.203293 170.10672 19.821083L182.13055 123.47201C180.87852 123.61725 179.63106 123.79947 178.38979 124.01843Z" fill-rule="nonzero"/><path fill="#eff6fb" d="M146.7701 24.214727C151.22525 23.04528 155.72655 22.059221 160.2626 21.259043L178.38979 124.01843C176.66609 124.3225 174.9556 124.697205 173.26263 125.141594Z" fill-rule="nonzero"/><path fill="#aacdec" d="M133.5456 28.273836C137.89627 26.740131 142.30817 25.385952 146.7701 24.214727L173.26263 125.141594C171.56711 125.58666 169.89058 126.10125 168.23734 126.68406Z" fill-rule="nonzero"/><path fill="#1a4480" d="M119.63328 33.887196C124.184975 31.810215 128.82703 29.937235 133.5456 28.273836L168.23734 126.68406C166.44427 127.31615 164.6803 128.02788 162.95064 128.81714Z" fill-rule="nonzero"/><path fill="#dfe1e2" d="M106.04341 40.849777C110.4657 38.32451 115.00031 36.001255 119.63328 33.887196L162.95064 128.81714C161.19012 129.62048 159.46696 130.50331 157.7865 131.46292Z" fill-rule="nonzero"/><path fill="#86b98e" d="M92.22157 49.66174C96.68299 46.50166 101.29574 43.560852 106.04341 40.849777L157.7865 131.46292C155.98238 132.49312 154.22954 133.61063 152.5342 134.81146Z" fill-rule="nonzero"/><path fill="#eff6fb" d="M78.96683 60.08543C83.20813 56.39157 87.63193 52.912643 92.22157 49.66174L152.5342 134.81146C150.79013 136.0468 149.10909 137.36879 147.49739 138.77246Z" fill-rule="nonzero"/><path fill="#aacdec" d="M63.462612 75.46764C68.29219 70.009964 73.47117 64.87174 78.96683 60.08543L147.49739 138.77246C145.40904 140.59126 143.44104 142.5438 141.60579 144.6177Z" fill-rule="nonzero"/><path fill="#1a4480" d="M49.957783 92.91037C54.07309 86.807045 58.58439 80.980286 63.462612 75.46764L141.60579 144.6177C139.75208 146.71251 138.03778 148.92668 136.47395 151.24594Z" fill-rule="nonzero"/><path fill="#dfe1e2" d="M38.79019 112.09043C42.086647 105.45832 45.817287 99.05104 49.957783 92.91037L136.47395 151.24594C134.90057 153.57939 133.48293 156.01416 132.23027 158.53436Z" fill-rule="nonzero"/><path fill="#86b98e" d="M29.999935 133.29135C32.444187 126.032585 35.3811 118.94915 38.79019 112.09043L132.23027 158.53436C130.93481 161.14067 129.81879 163.83238 128.88997 166.59071Z" fill-rule="nonzero"/><path fill="#eff6fb" d="M23.69242 158.14282C25.159954 149.71066 27.268576 141.40274 29.999935 133.29135L128.88997 166.59071C127.85206 169.67303 127.05078 172.83005 126.49312 176.03427Z" fill-rule="nonzero"/><path fill="#aacdec" d="M21.20009 186.82616C21.210022 177.21141 22.043848 167.61519 23.69242 158.14282L126.49312 176.03427C125.86666 179.63377 125.549805 183.28033 125.546036 186.93394Z" fill-rule="nonzero"/><path fill="#1a4480" d="M24.080803 218.00612C22.153696 207.7249 21.189285 197.2864 21.20009 186.82616L125.546036 186.93394C125.54193 190.90884 125.9084 194.87546 126.64071 198.78232Z" fill-rule="nonzero"/><path fill="#dfe1e2" d="M32.755302 248.28613C28.923578 238.48616 26.019363 228.34843 24.080803 218.00612L126.64071 198.78232C127.37736 202.7124 128.48096 206.56474 129.93701 210.28873Z" fill-rule="nonzero"/><path fill="#86b98e" d="M48.26912 278.5354C42.09013 269.00177 36.89235 258.867 32.755302 248.28613L129.93701 210.28873C131.5091 214.30946 133.48425 218.16068 135.83226 221.78345Z" fill-rule="nonzero"/><path fill="#eff6fb" d="M69.811615 305.31982C61.735493 297.1503 54.517025 288.17535 48.26912 278.5354L135.83226 221.78345C138.20647 225.44664 140.9495 228.85712 144.01842 231.96153Z" fill-rule="nonzero"/><path fill="#aacdec" d="M102.342445 330.9738C90.48369 323.79483 79.55732 315.17825 69.811615 305.31982L144.01842 231.96153C147.72179 235.70773 151.87381 238.98204 156.38013 241.71004Z" fill-rule="nonzero"/><path fill="#1a4480" d="M160.45833 352.77536C139.90222 349.1742 120.19516 341.7813 102.342445 330.9738L156.38013 241.71004C163.16415 245.8169 170.65285 248.62619 178.46417 249.99464Z" fill-rule="nonzero"/><path fill="#dfe1e2" d="M222.76175 351.98044C202.22444 356.12097 181.09459 356.39056 160.45833 352.77536L178.46417 249.99464C186.30594 251.36841 194.3353 251.26598 202.13947 249.69257Z" fill-rule="nonzero"/></svg>