<svg version="1.1" viewBox="0.0 0.0 379.0 374.0" fill="none" stroke="none" stroke-linecap="square" stroke-miterlimit="10" width="379" height="374" xmlns:xlink="http://www.w3.org/1999/xlink" xmlns="http://www.w3.org/2000/svg"><path fill="#ffffff" d="M0 0L379.0 0L379.0 374.0L0 374.0L0 0Z" fill-rule="nonzero"/><path fill="#aacdec" d="M189.5 18.7C263.5528 18.7 328.90463 67.10398 350.49094 137.94075L250.67656 168.35748C242.47375 141.43951 217.64006 123.046 189.5 123.046Z" fill-rule="nonzero"/><path fill="#eff6fb" d="M350.49094 137.94075C370.35776 203.135 348.94464 273.87506 296.25705 317.10696L230.06767 236.44064C250.08896 220.01253 258.22595 193.1313 250.67656 168.35748Z" fill-rule="nonzero"/><path fill="#86b98e" d="M296.25705 317.10696C272.4367 336.65234 243.70772 349.2832 213.20201 353.62265L198.50676 250.3166C210.09894 248.66762 221.01595 243.86789 230.06767 236.44064Z" fill-rule="nonzero"/><path fill="#1a4480" d="M178.70183 19.046764C182.29659 18.815647 185.89783 18.7 189.5 18.7L189.5 123.046C188.13118 123.046 186.7627 123.08994 185.3967 123.17777Z" fill-rule="nonzero"/><path fill="#dfe1e2" d="M167.67104 20.121641C171.33517 19.642345 175.0141 19.283857 178.70183 19.046764L185.3967 123.17777C183.99536 123.26787 182.59737 123.40409 181.205 123.58623Z" fill-rule="nonzero"/><path fill="#86b98e" d="M156.1345 22.040508C159.95662 21.26743 163.80446 20.62742 167.67104 20.121641L181.205 123.58623C179.73569 123.77842 178.27351 124.02162 176.8211 124.31539Z" fill-rule="nonzero"/><path fill="#eff6fb" d="M143.40706 25.134836C147.60779 23.938633 151.85349 22.90641 156.1345 22.040508L176.8211 124.31539C175.19432 124.64443 173.58096 125.03668 171.98468 125.49124Z" fill-rule="nonzero"/><path fill="#aacdec" d="M130.47745 29.388996C134.7282 27.797169 139.04158 26.377954 143.40706 25.134836L171.98468 125.49124C170.3258 125.96362 168.6867 126.50292 167.07143 127.10782Z" fill-rule="nonzero"/><path fill="#1a4480" d="M116.94231 35.143913C121.368004 33.02929 125.884026 31.109152 130.47745 29.388996L167.07143 127.10782C165.32593 127.761475 163.60985 128.49113 161.92807 129.2947Z" fill-rule="nonzero"/><path fill="#dfe1e2" d="M103.68185 42.223846C107.99435 39.66755 112.41891 37.305218 116.94231 35.143913L161.92807 129.2947C160.20918 130.11598 158.52785 131.01367 156.8891 131.98506Z" fill-rule="nonzero"/><path fill="#86b98e" d="M90.8983 50.608673C95.03027 47.621532 99.29585 44.823708 103.68185 42.223846L156.8891 131.98506C155.22243 132.973 153.6015 134.03618 152.03136 135.1713Z" fill-rule="nonzero"/><path fill="#eff6fb" d="M76.97741 61.845867C81.4152 57.855976 86.06206 54.104946 90.8983 50.608673L152.03136 135.1713C150.19359 136.49988 148.42778 137.92528 146.74141 139.44144Z" fill-rule="nonzero"/><path fill="#aacdec" d="M61.836002 77.33326C66.54537 71.85104 71.602974 66.67787 76.97741 61.845867L146.74141 139.44144C144.69913 141.27759 142.77724 143.2434 140.98769 145.32664Z" fill-rule="nonzero"/><path fill="#1a4480" d="M48.136898 95.66894C52.2819 89.253265 56.85885 83.12721 61.836002 77.33326L140.98769 145.32664C139.09636 147.52834 137.35712 149.85625 135.78203 152.29419Z" fill-rule="nonzero"/><path fill="#dfe1e2" d="M37.01341 115.7769C40.258785 108.82864 43.975277 102.11034 48.136898 95.66894L135.78203 152.29419C134.2006 154.74193 132.78835 157.29489 131.5551 159.93523Z" fill-rule="nonzero"/><path fill="#86b98e" d="M28.72585 137.23492C30.995758 129.90161 33.764744 122.7322 37.01341 115.7769L131.5551 159.93523C130.3206 162.57823 129.26839 165.30261 128.40582 168.08928Z" fill-rule="nonzero"/><path fill="#eff6fb" d="M23.235367 160.90475C24.492838 152.89284 26.32778 144.98228 28.72585 137.23492L128.40582 168.08928C127.49456 171.03326 126.79728 174.03928 126.31944 177.0838Z" fill-rule="nonzero"/><path fill="#aacdec" d="M21.210457 185.124C21.300877 177.01266 21.977612 168.91849 23.235367 160.90475L126.31944 177.0838C125.84149 180.12903 125.584335 183.20482 125.54997 186.28712Z" fill-rule="nonzero"/><path fill="#1a4480" d="M22.991209 211.48903C21.707539 202.76094 21.11212 193.94542 21.210457 185.124L125.54997 186.28712C125.5126 189.63927 125.73886 192.98915 126.22666 196.30583Z" fill-rule="nonzero"/><path fill="#dfe1e2" d="M30.442654 242.00592C27.012857 232.08818 24.518179 221.87138 22.991209 211.48903L126.22666 196.30583C126.80691 200.25113 127.75488 204.13351 129.05821 207.90225Z" fill-rule="nonzero"/><path fill="#86b98e" d="M44.06218 271.692C38.57063 262.26157 34.009315 252.31943 30.442654 242.00592L129.05821 207.90225C130.41354 211.82138 132.14684 215.5994 134.23363 219.18295Z" fill-rule="nonzero"/><path fill="#eff6fb" d="M66.45316 301.82318C57.889202 292.64587 50.378834 282.53928 44.06218 271.692L134.23363 219.18295C136.63396 223.30493 139.4879 227.14543 142.7422 230.63281Z" fill-rule="nonzero"/><path fill="#aacdec" d="M97.65349 328.02875C86.23046 320.5894 75.75359 311.78973 66.45316 301.82318L142.7422 230.63281C146.27637 234.42009 150.25757 237.76396 154.59833 240.59093Z" fill-rule="nonzero"/><path fill="#1a4480" d="M137.45714 347.05133C123.41208 342.4844 110.02925 336.0886 97.65349 328.02875L154.59833 240.59093C159.30112 243.65367 164.38658 246.08408 169.72371 247.8195Z" fill-rule="nonzero"/><path fill="#dfe1e2" d="M213.20201 353.62265C187.783 357.2385 161.87366 354.9907 137.45714 347.05133L169.72371 247.8195C179.00198 250.83647 188.84753 251.69063 198.50676 250.3166Z" fill-rule="nonzero"/></svg>