<svg version="1.1" viewBox="0.0 0.0 379.0 374.0" fill="none" stroke="none" stroke-linecap="square" stroke-miterlimit="10" width="379" height="374" xmlns:xlink="http://www.w3.org/1999/xlink" xmlns="http://www.w3.org/2000/svg"><path fill="#ffffff" d="M0 0L379.0 0L379.0 374.0L0 374.0L0 0Z" fill-rule="nonzero"/><path fill="#aacdec" d="M189.5 18.7C275.40622 18.7 347.52448 83.39964 356.81326 168.8022L253.07904 180.08484C249.5493 147.63187 222.14436 123.046 189.5 123.046Z" fill-rule="nonzero"/><path fill="#eff6fb" d="M356.81326 168.8022C360.1764 199.72311 354.90506 230.97119 341.5845 259.0777L247.29211 214.38953C252.35393 203.70905 254.35703 191.83478 253.07904 180.08484Z" fill-rule="nonzero"/><path fill="#86b98e" d="M341.5845 259.0777C330.05777 283.3992 312.86603 304.60153 291.45166 320.90573L228.24164 237.88419C236.37909 231.68858 242.91194 223.6317 247.29211 214.38953Z" fill-rule="nonzero"/><path fill="#dfe1e2" d="M291.45166 320.90573C274.68518 333.6712 255.67046 343.17438 235.39615 348.92108L206.94054 248.53001C214.64478 246.34625 221.87038 242.73506 228.24164 237.88419Z" fill-rule="nonzero"/><path fill="#1a4480" d="M175.14528 19.313293C179.91927 18.904617 184.70854 18.7 189.5 18.7L189.5 123.046C187.67924 123.046 185.85933 123.12376 184.0452 123.27905Z" fill-rule="nonzero"/><path fill="#dfe1e2" d="M160.6 21.199879C165.4187 20.35995 170.27174 19.73049 175.14528 19.313293L184.0452 123.27905C182.19327 123.437584 180.3491 123.67678 178.518 123.99596Z" fill-rule="nonzero"/><path fill="#86b98e" d="M146.22037 24.36002C150.96518 23.09739 155.76299 22.043001 160.6 21.199879L178.518 123.99596C176.67993 124.31634 174.85677 124.71701 173.05374 125.19681Z" fill-rule="nonzero"/><path fill="#eff6fb" d="M131.50433 29.00825C136.33603 27.234632 141.24652 25.683592 146.22037 24.36002L173.05374 125.19681C171.16368 125.69977 169.29768 126.28916 167.46165 126.963135Z" fill-rule="nonzero"/><path fill="#aacdec" d="M117.07467 35.08074C121.78776 32.833843 126.60286 30.807487 131.50433 29.00825L167.46165 126.963135C165.59909 127.64684 163.76935 128.41685 161.97838 129.27068Z" fill-rule="nonzero"/><path fill="#1a4480" d="M103.22382 42.496326C107.72282 39.810196 112.344795 37.33564 117.07467 35.08074L161.97838 129.27068C160.18103 130.12755 158.42467 131.06787 156.71506 132.08861Z" fill-rule="nonzero"/><path fill="#dfe1e2" d="M89.989944 51.26998C94.26074 48.138855 98.676956 45.211044 103.22382 42.496326L156.71506 132.08861C154.98724 133.1202 153.30908 134.23276 151.68617 135.42259Z" fill-rule="nonzero"/><path fill="#86b98e" d="M74.73167 63.901993C79.56534 59.3954 84.66025 55.17743 89.989944 51.26998L151.68617 135.42259C149.66089 136.90742 147.72482 138.51025 145.88803 140.22276Z" fill-rule="nonzero"/><path fill="#eff6fb" d="M60.645527 78.73452C65.03583 73.50931 69.73989 68.55599 74.73167 63.901993L145.88803 140.22276C143.99117 141.99127 142.20361 143.87354 140.5353 145.85912Z" fill-rule="nonzero"/><path fill="#aacdec" d="M45.941406 99.16026C50.32611 91.99423 55.241226 85.166565 60.645527 78.73452L140.5353 145.85912C138.48166 148.3033 136.61392 150.89781 134.94774 153.6209Z" fill-rule="nonzero"/><path fill="#1a4480" d="M33.98826 122.64949C37.352505 114.51933 41.34914 106.66551 45.941406 99.16026L134.94774 153.6209C133.20267 156.4729 131.68394 159.45735 130.40553 162.54681Z" fill-rule="nonzero"/><path fill="#dfe1e2" d="M25.63976 148.59804C27.716408 139.73701 30.508396 131.05905 33.98826 122.64949L130.40553 162.54681C129.08319 165.74243 128.02223 169.04007 127.23311 172.40726Z" fill-rule="nonzero"/><path fill="#86b98e" d="M21.55224 176.11699C22.15294 166.84692 23.520117 157.64249 25.63976 148.59804L127.23311 172.40726C126.42764 175.84415 125.90812 179.34183 125.67985 182.86446Z" fill-rule="nonzero"/><path fill="#eff6fb" d="M22.22437 205.54059C21.14154 195.77116 20.916637 185.92567 21.55224 176.11699L125.67985 182.86446C125.438324 186.59175 125.52379 190.33304 125.93526 194.04543Z" fill-rule="nonzero"/><path fill="#aacdec" d="M28.754713 236.85823C25.588453 226.65005 23.401794 216.16348 22.22437 205.54059L125.93526 194.04543C126.38268 198.08212 127.213615 202.06702 128.4168 205.94612Z" fill-rule="nonzero"/><path fill="#1a4480" d="M41.548965 267.22083C36.301414 257.5428 32.016132 247.3732 28.754713 236.85823L128.4168 205.94612C129.65613 209.94182 131.28453 213.80626 133.27861 217.48392Z" fill-rule="nonzero"/><path fill="#dfe1e2" d="M62.838024 297.82254C54.630367 288.44177 47.490223 278.17828 41.548965 267.22083L133.27861 217.48392C135.53629 221.64775 138.24954 225.54788 141.36845 229.11256Z" fill-rule="nonzero"/><path fill="#86b98e" d="M94.95586 326.23468C83.082245 318.17218 72.28871 308.62396 62.838024 297.82254L141.36845 229.11256C144.95972 233.2171 149.06125 236.84543 153.57323 239.90918Z" fill-rule="nonzero"/><path fill="#eff6fb" d="M134.14459 345.93607C120.27818 341.10657 107.10341 334.4832 94.95586 326.23468L153.57323 239.90918C158.1893 243.04361 163.19571 245.56049 168.46495 247.3957Z" fill-rule="nonzero"/><path fill="#aacdec" d="M182.80334 355.16672C166.2173 354.50623 149.82022 351.39566 134.14459 345.93607L168.46495 247.3957C174.42169 249.47035 180.65257 250.65237 186.95528 250.90335Z" fill-rule="nonzero"/><path fill="#1a4480" d="M235.39615 348.92108C218.3047 353.7656 200.55403 355.87357 182.80334 355.16672L186.95528 250.90335C193.70053 251.17197 200.44579 250.37093 206.94054 248.53001Z" fill-rule="nonzero"/></svg>