<svg version="1.1" viewBox="0.0 0.0 379.0 374.0" fill="none" stroke="none" stroke-linecap="square" stroke-miterlimit="10" width="379" height="374" xmlns:xlink="http://www.w3.org/1999/xlink" xmlns="http://www.w3.org/2000/svg"><path fill="#ffffff" d="M0 0L379.0 0L379.0 374.0L0 374.0L0 0Z" fill-rule="nonzero"/><path fill="#aacdec" d="M189.5 18.7C243.1745 18.7 293.62994 44.30173 325.32465 87.61913C357.01935 130.93654 366.1516 186.77383 349.90845 237.93153L250.45522 206.35399C256.62762 186.91406 253.15735 165.69589 241.11336 149.23528C229.06938 132.77466 209.8963 123.046 189.5 123.046Z" fill-rule="nonzero"/><path fill="#eff6fb" d="M349.90845 237.93153C328.31238 305.94812 266.1684 352.9503 194.84155 355.2152L191.52979 250.92178C218.63399 250.06111 242.2487 232.20029 250.45522 206.35399Z" fill-rule="nonzero"/><path fill="#1a4480" d="M181.68466 18.881557C184.28801 18.760536 186.89383 18.7 189.5 18.7L189.5 123.046C188.50966 123.046 187.51944 123.069 186.53017 123.11499Z" fill-rule="nonzero"/><path fill="#dfe1e2" d="M173.45343 19.466726C176.19197 19.204426 178.93654 19.00931 181.68466 18.881557L186.53017 123.11499C185.48589 123.163536 184.44295 123.23768 183.4023 123.33736Z" fill-rule="nonzero"/><path fill="#86b98e" d="M165.207 20.462496C167.9472 20.06278 170.69685 19.730757 173.45343 19.466726L183.4023 123.33736C182.3548 123.43769 181.30994 123.56386 180.26866 123.71575Z" fill-rule="nonzero"/><path fill="#eff6fb" d="M156.38023 21.990997C159.30841 21.403269 162.25171 20.893587 165.207 20.462496L180.26866 123.71575C179.14565 123.87956 178.02719 124.07324 176.91449 124.29658Z" fill-rule="nonzero"/><path fill="#aacdec" d="M147.40495 24.049402C150.37738 23.281534 153.37027 22.595142 156.38023 21.990997L176.91449 124.29658C175.7707 124.52615 174.6334 124.78698 173.50389 125.07877Z" fill-rule="nonzero"/><path fill="#1a4480" d="M137.99294 26.775433C141.10315 25.775597 144.24182 24.866535 147.40495 24.049402L173.50389 125.07877C172.3019 125.38928 171.10919 125.734726 169.9273 126.11466Z" fill-rule="nonzero"/><path fill="#dfe1e2" d="M128.45943 30.159513C131.60263 28.936213 134.7819 27.807676 137.99294 26.775433L169.9273 126.11466C168.70712 126.50692 167.499 126.93576 166.30458 127.40061Z" fill-rule="nonzero"/><path fill="#86b98e" d="M118.978264 34.18778C122.09681 32.748592 125.258675 31.40521 128.45943 30.159513L166.30458 127.40061C165.0883 127.87398 163.88678 128.38446 162.70174 128.93135Z" fill-rule="nonzero"/><path fill="#eff6fb" d="M107.11226 40.24459C110.98611 38.06983 114.94454 36.049313 118.978264 34.18778L162.70174 128.93135C161.16893 129.63873 159.66472 130.40654 158.19266 131.23294Z" fill-rule="nonzero"/><path fill="#aacdec" d="M95.67989 47.276424C99.39567 44.7814 103.20949 42.43559 107.11226 40.24459L158.19266 131.23294C156.70961 132.06552 155.26035 132.95692 153.84836 133.90504Z" fill-rule="nonzero"/><path fill="#1a4480" d="M84.619026 55.376022C88.19444 52.52705 91.88446 49.82494 95.67989 47.276424L153.84836 133.90504C152.4061 134.87347 151.00389 135.90028 149.64523 136.9829Z" fill-rule="nonzero"/><path fill="#dfe1e2" d="M74.226204 64.3752C77.56647 61.235176 81.03363 58.23295 84.619026 55.376022L149.64523 136.9829C148.28278 138.06853 146.96526 139.20937 145.69595 140.40257Z" fill-rule="nonzero"/><path fill="#86b98e" d="M62.94561 76.05463C66.5157 71.982254 70.28028 68.08457 74.226204 64.3752L145.69595 140.40257C144.1965 141.81213 142.76596 143.29326 141.40933 144.84076Z" fill-rule="nonzero"/><path fill="#eff6fb" d="M50.440495 92.198395C54.278255 86.568985 58.454315 81.1778 62.94561 76.05463L141.40933 144.84076C139.70264 146.78757 138.11574 148.83621 136.6574 150.97539Z" fill-rule="nonzero"/><path fill="#aacdec" d="M39.67883 110.328575C42.883614 104.06621 46.477886 98.01094 50.440495 92.198395L136.6574 150.97539C135.1516 153.18416 133.78577 155.48515 132.56796 157.86485Z" fill-rule="nonzero"/><path fill="#1a4480" d="M30.097124 133.00359C32.733246 125.22149 35.93571 117.64288 39.67883 110.328575L132.56796 157.86485C131.14557 160.6443 129.92863 163.52417 128.92691 166.48135Z" fill-rule="nonzero"/><path fill="#dfe1e2" d="M23.53622 159.05516C25.025503 150.21034 27.21946 141.49873 30.097124 133.00359L128.92691 166.48135C127.8334 169.70952 126.999695 173.01993 126.43376 176.38097Z" fill-rule="nonzero"/><path fill="#86b98e" d="M21.200903 186.44861C21.230978 177.26906 22.012022 168.10735 23.53622 159.05516L126.43376 176.38097C125.85457 179.82079 125.55777 183.30225 125.54634 186.79047Z" fill-rule="nonzero"/><path fill="#eff6fb" d="M23.43442 214.33337C21.917387 205.11655 21.170301 195.78941 21.200903 186.44861L125.54634 186.79047C125.53471 190.33998 125.8186 193.8843 126.39508 197.38669Z" fill-rule="nonzero"/><path fill="#aacdec" d="M37.270264 258.77045C30.622604 244.67033 25.966145 229.71501 23.43442 214.33337L126.39508 197.38669C127.35713 203.2317 129.12659 208.91473 131.6527 214.27277Z" fill-rule="nonzero"/><path fill="#1a4480" d="M69.03932 304.53348C55.980953 291.14987 45.24421 275.6837 37.270264 258.77045L131.6527 214.27277C134.6828 220.6998 138.76276 226.57695 143.72495 231.66272Z" fill-rule="nonzero"/><path fill="#dfe1e2" d="M122.602486 341.4332C102.51856 332.73322 84.32446 320.19928 69.03932 304.53348L143.72495 231.66272C149.5333 237.61572 156.44705 242.37863 164.07895 245.68462Z" fill-rule="nonzero"/><path fill="#86b98e" d="M194.84155 355.2152C170.04031 356.00275 145.37175 351.29642 122.602486 341.4332L164.07895 245.68462C172.73126 249.43263 182.10532 251.22105 191.52979 250.92178Z" fill-rule="nonzero"/></svg>