<svg version="1.1" viewBox="0.0 0.0 379.0 374.0" fill="none" stroke="none" stroke-linecap="square" stroke-miterlimit="10" width="379" height="374" xmlns:xlink="http://www.w3.org/1999/xlink" xmlns="http://www.w3.org/2000/svg"><path fill="#ffffff" d="M0 0L379.0 0L379.0 374.0L0 374.0L0 0Z" fill-rule="nonzero"/><path fill="#aacdec" d="M189.5 18.7C239.57106 18.7 287.04214 40.994755 319.01642 79.52728C350.99072 118.05981 364.14764 168.82846 354.91275 218.04053L252.35684 198.7954C255.8661 180.09482 250.86647 160.80273 238.71625 146.16037C226.56601 131.518 208.52701 123.046 189.5 123.046Z" fill-rule="nonzero"/><path fill="#eff6fb" d="M354.91275 218.04053C344.489 273.5879 306.88065 320.19473 254.78976 342.11975L214.3101 245.94551C234.10464 237.614 248.39583 219.9034 252.35684 198.7954Z" fill-rule="nonzero"/><path fill="#1a4480" d="M183.42226 18.809776C185.44734 18.736599 187.47359 18.7 189.5 18.7L189.5 123.046C188.72997 123.046 187.95999 123.059906 187.19046 123.087715Z" fill-rule="nonzero"/><path fill="#dfe1e2" d="M176.73145 19.18506C178.95901 19.015572 181.18973 18.890451 183.42226 18.809776L187.19046 123.087715C186.34209 123.11837 185.49443 123.16592 184.64795 123.23032Z" fill-rule="nonzero"/><path fill="#86b98e" d="M166.99548 20.211401C170.23016 19.77495 173.47687 19.432692 176.73145 19.18506L184.64795 123.23032C183.41121 123.324425 182.17746 123.45448 180.94829 123.62033Z" fill-rule="nonzero"/><path fill="#eff6fb" d="M156.56451 21.954117C160.02238 21.264086 163.5011 20.682894 166.99548 20.211401L180.94829 123.62033C179.62042 123.7995 178.29851 124.020355 176.98451 124.28256Z" fill-rule="nonzero"/><path fill="#aacdec" d="M146.1902 24.368048C149.62198 23.45415 153.0818 22.649103 156.56451 21.954117L176.98451 124.28256C175.66109 124.54666 174.34634 124.85258 173.04228 125.19986Z" fill-rule="nonzero"/><path fill="#1a4480" d="M135.68826 27.534681C139.15358 26.36531 142.65608 25.309204 146.1902 24.368048L173.04228 125.19986C171.69931 125.557495 170.36836 125.95882 169.05154 126.40318Z" fill-rule="nonzero"/><path fill="#dfe1e2" d="M122.64807 32.547066C126.92355 30.696505 131.27403 29.02427 135.68826 27.534681L169.05154 126.40318C167.37413 126.96922 165.72095 127.604675 164.09627 128.30789Z" fill-rule="nonzero"/><path fill="#86b98e" d="M107.01162 40.301136C112.08615 37.44774 117.30531 34.85957 122.64807 32.547066L164.09627 128.30789C162.06602 129.18663 160.08273 130.17014 158.15442 131.25443Z" fill-rule="nonzero"/><path fill="#eff6fb" d="M92.122894 49.73169C96.917694 46.330296 101.88741 43.182465 107.01162 40.301136L158.15442 131.25443C156.20721 132.34933 154.31873 133.54552 152.4967 134.83804Z" fill-rule="nonzero"/><path fill="#aacdec" d="M78.09124 60.853348C82.56781 56.899784 87.25165 53.187313 92.122894 49.73169L152.4967 134.83804C150.64563 136.15118 148.86577 137.56192 147.16467 139.06427Z" fill-rule="nonzero"/><path fill="#1a4480" d="M64.55788 74.24205C68.812775 69.52738 73.33112 65.057335 78.09124 60.853348L147.16467 139.06427C145.35582 140.66179 143.63885 142.36041 142.02199 144.15198Z" fill-rule="nonzero"/><path fill="#dfe1e2" d="M52.519352 89.21865C56.243702 84.00126 60.263092 79.00091 64.55788 74.24205L142.02199 144.15198C140.38997 145.96034 138.86261 147.86047 137.44736 149.8431Z" fill-rule="nonzero"/><path fill="#86b98e" d="M42.04623 105.868774C45.209675 100.1193 48.706688 94.55976 52.519352 89.21865L137.44736 149.8431C135.99854 151.87271 134.66968 153.98534 133.46756 156.17014Z" fill-rule="nonzero"/><path fill="#eff6fb" d="M32.932907 125.26156C35.555676 118.61028 38.599617 112.1329 42.04623 105.868774L133.46756 156.17014C132.15785 158.5505 131.00116 161.0119 130.0045 163.5394Z" fill-rule="nonzero"/><path fill="#aacdec" d="M25.306091 150.0507C27.206942 141.60378 29.756783 133.31613 32.932907 125.26156L130.0045 163.5394C128.79758 166.60013 127.828636 169.74944 127.106316 172.95927Z" fill-rule="nonzero"/><path fill="#1a4480" d="M21.494608 177.04617C22.032972 167.95943 23.307648 158.93132 25.306091 150.0507L127.106316 172.95927C126.34691 176.3339 125.862526 179.76459 125.65795 183.21754Z" fill-rule="nonzero"/><path fill="#dfe1e2" d="M22.160757 204.95738C21.166063 195.68816 20.943249 186.35231 21.494608 177.04617L125.65795 183.21754C125.44843 186.75388 125.533104 190.3015 125.91109 193.8238Z" fill-rule="nonzero"/><path fill="#86b98e" d="M29.480894 239.14188C25.86078 228.03206 23.407505 216.57544 22.160757 204.95738L125.91109 193.8238C126.38485 198.23866 127.3171 202.59218 128.69273 206.81392Z" fill-rule="nonzero"/><path fill="#eff6fb" d="M44.858925 273.04562C38.49491 262.34784 33.337357 250.97704 29.480894 239.14188L128.69273 206.81392C130.15819 211.31128 132.11807 215.63217 134.53639 219.69734Z" fill-rule="nonzero"/><path fill="#aacdec" d="M70.03035 305.54068C60.343708 295.77814 51.890205 284.86508 44.858925 273.04562L134.53639 219.69734C137.20828 224.18872 140.42061 228.3357 144.10153 232.04546Z" fill-rule="nonzero"/><path fill="#1a4480" d="M102.65403 331.16196C90.76454 323.99948 79.80677 315.3937 70.03035 305.54068L144.10153 232.04546C147.81657 235.78961 151.98053 239.0598 156.49854 241.78154Z" fill-rule="nonzero"/><path fill="#dfe1e2" d="M156.92578 352.11755C137.7559 348.33575 119.391 341.24463 102.65403 331.16196L156.49854 241.78154C162.85858 245.61296 169.83725 248.30759 177.1218 249.74467Z" fill-rule="nonzero"/><path fill="#86b98e" d="M254.78976 342.11975C223.89215 355.1245 189.8148 358.60587 156.92578 352.11755L177.1218 249.74467C189.61963 252.21024 202.56902 250.88731 214.3101 245.94551Z" fill-rule="nonzero"/></svg>