<svg version="1.1" viewBox="0.0 0.0 379.0 374.0" fill="none" stroke="none" stroke-linecap="square" stroke-miterlimit="10" width="379" height="374" xmlns:xlink="http://www.w3.org/1999/xlink" xmlns="http://www.w3.org/2000/svg"><path fill="#ffffff" d="M0 0L379.0 0L379.0 374.0L0 374.0L0 0Z" fill-rule="nonzero"/><path fill="#aacdec" d="M189.5 18.7C245.34297 18.7 297.5495 46.399036 328.859 92.639206L242.45642 151.1429C230.5588 133.57164 210.72032 123.046 189.5 123.046Z" fill-rule="nonzero"/><path fill="#eff6fb" d="M328.859 92.639206C354.7958 130.9446 363.8219 178.23717 353.816 223.40247L251.94008 200.83293C255.74232 183.67012 252.31241 165.69894 242.45642 151.1429Z" fill-rule="nonzero"/><path fill="#86b98e" d="M353.816 223.40247C343.82877 268.4836 315.7583 307.48148 276.17896 331.26242L222.438 241.81972C237.47815 232.78296 248.14493 217.96378 251.94008 200.83293Z" fill-rule="nonzero"/><path fill="#1a4480" d="M183.04362 18.823887C185.19476 18.741302 187.34729 18.7 189.5 18.7L189.5 123.046C188.68196 123.046 187.86401 123.0617 187.04659 123.09308Z" fill-rule="nonzero"/><path fill="#dfe1e2" d="M176.15648 19.229797C178.44919 19.04745 180.74538 18.912117 183.04362 18.823887L187.04659 123.09308C186.17325 123.1266 185.30069 123.17803 184.42946 123.24732Z" fill-rule="nonzero"/><path fill="#86b98e" d="M168.88037 19.967905C171.30011 19.669195 173.72606 19.423101 176.15648 19.229797L184.42946 123.24732C183.5059 123.32078 182.58405 123.41429 181.66454 123.5278Z" fill-rule="nonzero"/><path fill="#eff6fb" d="M160.43784 21.228226C163.2409 20.736809 166.056 20.316566 168.88037 19.967905L181.66454 123.5278C180.59128 123.66029 179.52155 123.819984 178.45638 124.00673Z" fill-rule="nonzero"/><path fill="#aacdec" d="M151.39804 23.069738C154.39392 22.373413 157.40831 21.759346 160.43784 21.228226L178.45638 124.00673C177.30516 124.20855 176.15968 124.441895 175.02126 124.7065Z" fill-rule="nonzero"/><path fill="#1a4480" d="M142.2151 25.479015C145.25282 24.589731 148.31502 23.78632 151.39804 23.069738L175.02126 124.7065C173.8497 124.9788 172.68607 125.284096 171.53174 125.622025Z" fill-rule="nonzero"/><path fill="#dfe1e2" d="M132.33829 28.704615C135.59657 27.52802 138.89043 26.452309 142.2151 25.479015L171.53174 125.622025C170.26836 125.991875 169.0167 126.40065 167.77855 126.847755Z" fill-rule="nonzero"/><path fill="#86b98e" d="M120.630615 33.436016C124.47261 31.71298 128.37791 30.134737 132.33829 28.704615L167.77855 126.847755C166.2736 127.3912 164.7896 127.99094 163.32964 128.64569Z" fill-rule="nonzero"/><path fill="#eff6fb" d="M106.96437 40.327713C111.41292 37.82442 115.973045 35.52481 120.630615 33.436016L163.32964 128.64569C161.55975 129.43942 159.8269 130.31328 158.13646 131.26453Z" fill-rule="nonzero"/><path fill="#aacdec" d="M93.558846 48.724243C97.89329 45.71684 102.36673 42.9149 106.96437 40.327713L158.13646 131.26453C156.38936 132.24767 154.68945 133.3124 153.04236 134.45522Z" fill-rule="nonzero"/><path fill="#1a4480" d="M79.82122 59.346344C84.21459 55.571606 88.799904 52.026184 93.558846 48.724243L153.04236 134.45522C151.23396 135.70995 149.49155 137.0572 147.82207 138.49161Z" fill-rule="nonzero"/><path fill="#dfe1e2" d="M67.08561 71.502785C71.11581 67.23122 75.36683 63.173515 79.82122 59.346344L147.82207 138.49161C146.1294 139.94594 144.514 141.48785 142.98253 143.11105Z" fill-rule="nonzero"/><path fill="#86b98e" d="M53.813213 87.431C57.905792 81.853874 62.338333 76.53438 67.08561 71.502785L142.98253 143.11105C141.17857 145.02306 139.4942 147.04446 137.93903 149.16377Z" fill-rule="nonzero"/><path fill="#eff6fb" d="M39.589897 110.50261C43.703033 102.44219 48.459557 94.72665 53.813213 87.431L137.93903 149.16377C135.90463 151.93613 134.09715 154.86803 132.53416 157.93098Z" fill-rule="nonzero"/><path fill="#aacdec" d="M28.107502 139.2784C31.042065 129.35382 34.885815 119.72109 39.589897 110.50261L132.53416 157.93098C130.74661 161.43402 129.28598 165.09445 128.17085 168.86578Z" fill-rule="nonzero"/><path fill="#1a4480" d="M21.434937 178.11044C22.131048 164.94981 24.37058 151.9165 28.107502 139.2784L128.17085 168.86578C126.750824 173.66827 125.899796 178.62093 125.63528 183.62196Z" fill-rule="nonzero"/><path fill="#dfe1e2" d="M24.584997 220.58469C21.740524 206.61714 20.68203 192.34479 21.434937 178.11044L125.63528 183.62196C125.349174 189.03102 125.751396 194.45451 126.8323 199.76218Z" fill-rule="nonzero"/><path fill="#86b98e" d="M38.461033 261.24365C32.117756 248.3391 27.454426 234.6748 24.584997 220.58469L126.8323 199.76218C127.92268 205.11642 129.69475 210.30885 132.1052 215.21259Z" fill-rule="nonzero"/><path fill="#eff6fb" d="M63.37275 298.43073C53.450184 287.1995 45.0722 274.6932 38.461033 261.24365L132.1052 215.21259C134.61743 220.32343 137.80107 225.0758 141.57164 229.34367Z" fill-rule="nonzero"/><path fill="#aacdec" d="M100.71058 329.97318C86.79604 321.33194 74.21748 310.70578 63.37275 298.43073L141.57164 229.34367C145.69264 234.0082 150.4725 238.04614 155.76003 241.3298Z" fill-rule="nonzero"/><path fill="#1a4480" d="M152.89525 351.27106C134.4268 347.1557 116.78457 339.95547 100.71058 329.97318L155.76003 241.3298C161.86813 245.12308 168.57219 247.85918 175.5902 249.423Z" fill-rule="nonzero"/><path fill="#dfe1e2" d="M276.17896 331.26242C239.1719 353.49783 195.03505 360.66113 152.89525 351.27106L175.5902 249.423C191.60332 252.99123 208.37532 250.26918 222.438 241.81972Z" fill-rule="nonzero"/></svg>