<svg version="1.1" viewBox="0.0 0.0 379.0 374.0" fill="none" stroke="none" stroke-linecap="square" stroke-miterlimit="10" width="379" height="374" xmlns:xlink="http://www.w3.org/1999/xlink" xmlns="http://www.w3.org/2000/svg"><path fill="#ffffff" d="M0 0L379.0 0L379.0 374.0L0 374.0L0 0Z" fill-rule="nonzero"/><path fill="#aacdec" d="M189.5 18.7C234.48581 18.7 277.59924 36.70982 309.21765 68.70979C340.8361 100.70977 358.32748 144.03612 357.7879 189.01868L253.4494 187.7671C253.65443 170.67372 247.0077 154.20972 234.9927 142.04973C222.9777 129.88972 206.5946 123.046 189.5 123.046Z" fill-rule="nonzero"/><path fill="#eff6fb" d="M357.7879 189.01868C357.0446 250.98463 322.30817 307.5289 267.37 336.20172L219.0906 243.69666C239.9671 232.80098 253.16695 211.31416 253.4494 187.7671Z" fill-rule="nonzero"/><path fill="#1a4480" d="M185.52466 18.746956C186.84953 18.715652 188.17474 18.7 189.5 18.7L189.5 123.046C188.9964 123.046 188.49283 123.05195 187.98936 123.06384Z" fill-rule="nonzero"/><path fill="#dfe1e2" d="M180.96594 18.91651C182.48468 18.8394 184.0044 18.782877 185.52466 18.746956L187.98936 123.06384C187.41167 123.07749 186.83418 123.09897 186.25706 123.12827Z" fill-rule="nonzero"/><path fill="#86b98e" d="M175.97128 19.24463C177.63445 19.110504 179.29951 19.001118 180.96594 18.91651L186.25706 123.12827C185.62383 123.16042 184.99109 123.20199 184.35909 123.25296Z" fill-rule="nonzero"/><path fill="#eff6fb" d="M170.9862 19.721403C172.64543 19.537764 174.30731 19.378822 175.97128 19.24463L184.35909 123.25296C183.72678 123.303955 183.09526 123.36435 182.46475 123.434135Z" fill-rule="nonzero"/><path fill="#aacdec" d="M165.40982 20.433037C167.26451 20.164797 169.12358 19.927551 170.9862 19.721403L182.46475 123.434135C181.75696 123.51247 181.05052 123.60262 180.34573 123.70455Z" fill-rule="nonzero"/><path fill="#1a4480" d="M159.51692 21.392315C161.4754 21.037737 163.44 20.717928 165.40982 20.433037L180.34573 123.70455C179.5972 123.81281 178.85065 123.93434 178.10643 124.06908Z" fill-rule="nonzero"/><path fill="#dfe1e2" d="M153.55753 22.582762C155.53667 22.15011 157.52345 21.753231 159.51692 21.392315L178.10643 124.06908C177.3489 124.20623 176.59393 124.35704 175.84186 124.52145Z" fill-rule="nonzero"/><path fill="#86b98e" d="M147.53351 24.016247C149.53255 23.501516 151.5409 23.023607 153.55753 22.582762L175.84186 124.52145C175.07555 124.68897 174.31236 124.870575 173.55273 125.06618Z" fill-rule="nonzero"/><path fill="#eff6fb" d="M141.54906 25.67549C143.53351 25.08565 145.52866 24.532475 147.53351 24.016247L173.55273 125.06618C172.7909 125.26234 172.03273 125.47255 171.27864 125.696686Z" fill-rule="nonzero"/><path fill="#aacdec" d="M135.371 27.642096C137.41754 26.94695 139.47728 26.291294 141.54906 25.67549L171.27864 125.696686C170.49136 125.930695 169.70866 126.17984 168.93098 126.44399Z" fill-rule="nonzero"/><path fill="#1a4480" d="M129.21281 29.86838C131.25092 29.086418 133.30403 28.344183 135.371 27.642096L168.93098 126.44399C168.14554 126.71079 167.36534 126.992836 166.59087 127.289986Z" fill-rule="nonzero"/><path fill="#dfe1e2" d="M123.03023 32.382214C125.07427 31.503485 127.135544 30.665375 129.21281 29.86838L166.59087 127.289986C165.80151 127.59284 165.01822 127.91132 164.24149 128.24524Z" fill-rule="nonzero"/><path fill="#86b98e" d="M114.93025 36.12176C117.596725 34.80389 120.29767 33.556934 123.03023 32.382214L164.24149 128.24524C163.20311 128.69164 162.17676 129.16548 161.1635 129.66628Z" fill-rule="nonzero"/><path fill="#eff6fb" d="M106.537575 40.5687C109.29275 39.007725 112.091415 37.524822 114.93025 36.12176L161.1635 129.66628C160.08473 130.19943 159.02124 130.76294 157.97427 131.35611Z" fill-rule="nonzero"/><path fill="#aacdec" d="M98.03039 45.726505C100.814674 43.92378 103.65164 42.20376 106.537575 40.5687L157.97427 131.35611C156.87762 131.97743 155.79958 132.63104 154.74155 133.31607Z" fill-rule="nonzero"/><path fill="#1a4480" d="M86.63014 53.79834C90.31688 50.951122 94.12024 48.25819 98.03039 45.726505L154.74155 133.31607C153.25569 134.2781 151.81041 135.30142 150.40945 136.38338Z" fill-rule="nonzero"/><path fill="#dfe1e2" d="M74.77115 63.865196C78.56687 60.32859 82.52409 56.969383 86.63014 53.79834L150.40945 136.38338C148.84915 137.58836 147.34541 138.86487 145.90303 140.20877Z" fill-rule="nonzero"/><path fill="#86b98e" d="M57.485634 82.61083C62.76515 75.934166 68.543564 69.66764 74.77115 63.865196L145.90303 140.20877C143.53656 142.41371 141.34076 144.79498 139.33455 147.33212Z" fill-rule="nonzero"/><path fill="#eff6fb" d="M35.98674 118.017624C41.667744 105.37512 48.88872 93.4828 57.485634 82.61083L139.33455 147.33212C136.06772 151.46347 133.32375 155.98254 131.16496 160.7867Z" fill-rule="nonzero"/><path fill="#aacdec" d="M21.500975 176.93933C22.719997 156.58336 27.628338 136.6184 35.98674 118.017624L131.16496 160.7867C127.98877 167.855 126.1236 175.44168 125.66037 183.17694Z" fill-rule="nonzero"/><path fill="#1a4480" d="M29.324306 238.65886C22.903631 218.75063 20.250532 197.81992 21.500975 176.93933L125.66037 183.17694C125.1852 191.11157 126.19338 199.06525 128.63324 206.63037Z" fill-rule="nonzero"/><path fill="#dfe1e2" d="M105.395256 332.7782C69.24566 311.92218 42.134502 278.3787 29.324306 238.65886L128.63324 206.63037C133.50111 221.7239 143.80334 234.47043 157.54019 242.39572Z" fill-rule="nonzero"/><path fill="#86b98e" d="M267.37 336.20172C216.34497 362.83224 155.24948 361.54092 105.395256 332.7782L157.54019 242.39572C176.4848 253.32555 199.7011 253.81625 219.0906 243.69666Z" fill-rule="nonzero"/></svg>