<svg version="1.1" viewBox="0.0 0.0 379.0 374.0" fill="none" stroke="none" stroke-linecap="square" stroke-miterlimit="10" width="379" height="374" xmlns:xlink="http://www.w3.org/1999/xlink" xmlns="http://www.w3.org/2000/svg"><path fill="#ffffff" d="M0 0L379.0 0L379.0 374.0L0 374.0L0 0Z" fill-rule="nonzero"/><path fill="#aacdec" d="M189.5 18.7C229.0575 18.7 267.35092 32.63382 297.65826 58.055508L230.60014 138.0011C219.08336 128.34085 204.53185 123.046 189.5 123.046Z" fill-rule="nonzero"/><path fill="#eff6fb" d="M297.65826 58.055508C325.69608 81.57355 345.30435 113.58946 353.51224 149.25244L251.82465 172.65593C248.70566 159.104 241.2545 146.93794 230.60014 138.0011Z" fill-rule="nonzero"/><path fill="#86b98e" d="M353.51224 149.25244C359.2003 173.96689 359.22946 199.64726 353.59763 224.37457L251.8571 201.20233C253.99721 191.80595 253.98611 182.04742 251.82465 172.65593Z" fill-rule="nonzero"/><path fill="#dfe1e2" d="M353.59763 224.37457C348.38687 247.25305 338.44968 268.78912 324.42398 287.60022L240.77112 225.22809C246.10088 218.07988 249.87701 209.89616 251.8571 201.20233Z" fill-rule="nonzero"/><path fill="#1a4480" d="M324.42398 287.60022C311.86517 304.44397 296.2635 318.78726 278.42545 329.8886L223.29167 241.29767C230.07013 237.07916 235.99876 231.62871 240.77112 225.22809Z" fill-rule="nonzero"/><path fill="#aacdec" d="M278.42545 329.8886C261.68933 340.30417 243.25352 347.69858 223.95865 351.73462L202.59428 249.59915C209.92635 248.06546 216.93195 245.25558 223.29167 241.29767Z" fill-rule="nonzero"/><path fill="#1a4480" d="M168.966 19.957355C175.77863 19.119902 182.63611 18.7 189.5 18.7L189.5 123.046C186.89172 123.046 184.28587 123.20557 181.69708 123.523796Z" fill-rule="nonzero"/><path fill="#dfe1e2" d="M148.66156 23.729942C155.3461 22.05795 162.12701 20.79805 168.966 19.957355L181.69708 123.523796C179.09827 123.84326 176.52151 124.32202 173.9814 124.957375Z" fill-rule="nonzero"/><path fill="#86b98e" d="M128.82524 30.01763C135.30133 27.514582 141.92609 25.414673 148.66156 23.729942L173.9814 124.957375C171.42192 125.59757 168.90451 126.39554 166.44359 127.3467Z" fill-rule="nonzero"/><path fill="#eff6fb" d="M109.47992 38.940296C115.73346 35.560516 122.19484 32.580326 128.82524 30.01763L166.44359 127.3467C163.92404 128.32053 161.46872 129.453 159.09236 130.7373Z" fill-rule="nonzero"/><path fill="#aacdec" d="M91.095314 50.466457C96.9692 46.232937 103.11016 42.38288 109.47992 38.940296L159.09236 130.7373C156.67186 132.0455 154.3383 133.50851 152.10622 135.11725Z" fill-rule="nonzero"/><path fill="#1a4480" d="M73.2797 65.2719C78.871155 59.933437 84.823784 54.986576 91.095314 50.466457L152.10622 135.11725C149.72304 136.8349 147.46104 138.7147 145.33629 140.74332Z" fill-rule="nonzero"/><path fill="#dfe1e2" d="M57.33542 82.80109C62.231728 76.59067 67.55969 70.73309 73.2797 65.2719L145.33629 140.74332C143.16269 142.81857 141.13806 145.04445 139.27747 147.40442Z" fill-rule="nonzero"/><path fill="#86b98e" d="M43.730423 102.88032C47.77661 95.86875 52.323414 89.15825 57.33542 82.80109L139.27747 147.40442C137.3729 149.82013 135.64511 152.37013 134.10756 155.03452Z" fill-rule="nonzero"/><path fill="#eff6fb" d="M32.923298 125.28593C35.968037 117.56103 39.580276 110.07204 43.730423 102.88032L134.10756 155.03452C132.5305 157.76738 131.15785 160.61319 130.00085 163.54865Z" fill-rule="nonzero"/><path fill="#aacdec" d="M24.715082 152.78273C26.663355 143.40016 29.409407 134.20114 32.923298 125.28593L130.00085 163.54865C128.66557 166.93643 127.62208 170.43207 126.88173 173.99744Z" fill-rule="nonzero"/><path fill="#1a4480" d="M21.259346 182.53094C21.524956 172.53188 22.681446 162.57642 24.715082 152.78273L126.88173 173.99744C126.10895 177.71904 125.66949 181.50212 125.56855 185.30176Z" fill-rule="nonzero"/><path fill="#dfe1e2" d="M23.24292 213.14333C21.6512 203.02086 20.987251 192.77417 21.259346 182.53094L125.56855 185.30176C125.46516 189.19418 125.71745 193.08792 126.32231 196.93446Z" fill-rule="nonzero"/><path fill="#86b98e" d="M31.107405 243.89178C27.523172 233.91292 24.88997 223.61766 23.24292 213.14333L126.32231 196.93446C126.94819 200.91472 127.94881 204.8269 129.3108 208.61888Z" fill-rule="nonzero"/><path fill="#eff6fb" d="M45.40392 273.9552C39.6566 264.43115 34.867676 254.36078 31.107405 243.89178L129.3108 208.61888C130.73972 212.59709 132.55951 216.42384 134.74348 220.04298Z" fill-rule="nonzero"/><path fill="#aacdec" d="M66.03127 301.36942C58.239613 292.95786 51.327927 283.77206 45.40392 273.9552L134.74348 220.04298C136.99461 223.77339 139.62105 227.26398 142.58188 230.46037Z" fill-rule="nonzero"/><path fill="#1a4480" d="M93.06925 324.93478C83.242935 318.06516 74.17882 310.1652 66.03127 301.36942L142.58188 230.46037C145.67795 233.80276 149.12231 236.80476 152.85632 239.4152Z" fill-rule="nonzero"/><path fill="#dfe1e2" d="M130.94917 344.78687C117.52972 339.80722 104.80033 333.13602 93.06925 324.93478L152.85632 239.4152C157.31413 242.5317 162.15129 245.06674 167.25069 246.959Z" fill-rule="nonzero"/><path fill="#86b98e" d="M174.06763 354.59097C159.32617 353.23352 144.82825 349.93704 130.94917 344.78687L167.25069 246.959C172.52473 248.91608 178.03395 250.16873 183.6357 250.68457Z" fill-rule="nonzero"/><path fill="#eff6fb" d="M223.95865 351.73462C207.56311 355.16418 190.74744 356.1269 174.06763 354.59097L183.6357 250.68457C189.97403 251.26822 196.36398 250.90239 202.59428 249.59915Z" fill-rule="nonzero"/></svg>