<svg version="1.1" viewBox="0.0 0.0 379.0 374.0" fill="none" stroke="none" stroke-linecap="square" stroke-miterlimit="10" width="379" height="374" xmlns:xlink="http://www.w3.org/1999/xlink" xmlns="http://www.w3.org/2000/svg"><path fill="#ffffff" d="M0 0L379.0 0L379.0 374.0L0 374.0L0 0Z" fill-rule="nonzero"/><path fill="#aacdec" d="M189.5 18.7C257.18442 18.7 318.28323 59.246548 344.57922 121.61402L248.4301 162.15332C238.43764 138.45369 215.22008 123.046 189.5 123.046Z" fill-rule="nonzero"/><path fill="#eff6fb" d="M344.57922 121.61402C359.9914 158.16788 361.99588 198.99103 350.23886 236.87892L250.58076 205.954C255.04843 191.5566 254.28673 176.0438 248.4301 162.15332Z" fill-rule="nonzero"/><path fill="#86b98e" d="M350.23886 236.87892C338.93176 273.31696 315.57968 304.83203 284.0114 326.2569L225.41434 239.91762C237.41028 231.77617 246.28407 219.80045 250.58076 205.954Z" fill-rule="nonzero"/><path fill="#dfe1e2" d="M284.0114 326.2569C262.37085 340.944 237.60515 350.38547 211.67941 353.83215L197.92818 250.39621C207.77995 249.08647 217.19092 245.49872 225.41434 239.91762Z" fill-rule="nonzero"/><path fill="#1a4480" d="M174.85606 19.338303C179.72578 18.91297 184.61174 18.7 189.5 18.7L189.5 123.046C187.64246 123.046 185.7858 123.12693 183.9353 123.28855Z" fill-rule="nonzero"/><path fill="#dfe1e2" d="M160.2214 21.266315C165.06908 20.409924 169.952 19.766634 174.85606 19.338303L183.9353 123.28855C182.07176 123.451324 180.21625 123.69577 178.37413 124.0212Z" fill-rule="nonzero"/><path fill="#86b98e" d="M145.63347 24.517332C150.44557 23.218176 155.31302 22.133434 160.2214 21.266315L178.37413 124.0212C176.50894 124.35071 174.65932 124.76291 172.83072 125.256584Z" fill-rule="nonzero"/><path fill="#eff6fb" d="M130.91083 29.227385C135.74364 27.432707 140.65637 25.861032 145.63347 24.517332L172.83072 125.256584C170.93942 125.76719 169.07259 126.364426 167.23611 127.04641Z" fill-rule="nonzero"/><path fill="#aacdec" d="M115.606735 35.7893C120.5967 33.350815 125.704315 31.160831 130.91083 29.227385L167.23611 127.04641C165.25764 127.78111 163.31674 128.61331 161.42056 129.53993Z" fill-rule="nonzero"/><path fill="#1a4480" d="M99.92154 44.519863C104.990906 41.33271 110.226746 38.41838 115.606735 35.7893L161.42056 129.53993C159.37616 130.53899 157.38655 131.64642 155.46019 132.85754Z" fill-rule="nonzero"/><path fill="#dfe1e2" d="M84.099464 55.791702C89.15206 51.732918 94.43488 47.969368 99.92154 44.519863L155.46019 132.85754C153.37526 134.16837 151.36778 135.59851 149.4478 137.14085Z" fill-rule="nonzero"/><path fill="#86b98e" d="M69.54174 68.9538C74.134155 64.286995 78.994995 59.89216 84.099464 55.791702L149.4478 137.14085C147.5081 138.69902 145.66098 140.36906 143.91586 142.14244Z" fill-rule="nonzero"/><path fill="#eff6fb" d="M56.096996 84.39138C60.261173 78.97747 64.75106 73.822075 69.54174 68.9538L143.91586 142.14244C142.0954 143.99239 140.38925 145.95145 138.80685 148.00873Z" fill-rule="nonzero"/><path fill="#aacdec" d="M44.487656 101.58156C48.000298 95.61825 51.87744 89.87729 56.096996 84.39138L138.80685 148.00873C137.20343 150.09337 135.73012 152.27493 134.39531 154.541Z" fill-rule="nonzero"/><path fill="#1a4480" d="M34.901684 120.48496C37.69667 113.988686 40.898342 107.67503 44.487656 101.58156L134.39531 154.541C133.03137 156.8565 131.81473 159.2557 130.75264 161.72429Z" fill-rule="nonzero"/><path fill="#dfe1e2" d="M27.094418 142.84894C29.16835 135.22015 31.777233 127.747 34.901684 120.48496L130.75264 161.72429C129.56535 164.48386 128.57397 167.32365 127.78588 170.2226Z" fill-rule="nonzero"/><path fill="#86b98e" d="M22.415785 166.80705C23.39335 158.71829 24.957006 150.7112 27.094418 142.84894L127.78588 170.2226C126.97366 173.21025 126.37947 176.25294 126.007996 179.32668Z" fill-rule="nonzero"/><path fill="#eff6fb" d="M21.275696 192.04712C21.022776 183.61708 21.40388 175.17996 22.415785 166.80705L126.007996 179.32668C125.623474 182.50839 125.47865 185.7145 125.57477 188.91791Z" fill-rule="nonzero"/><path fill="#aacdec" d="M24.315557 219.23337C22.566248 210.26878 21.549603 201.17667 21.275696 192.04712L125.57477 188.91791C125.67885 192.38713 126.06518 195.84213 126.72991 199.24867Z" fill-rule="nonzero"/><path fill="#1a4480" d="M32.463356 247.53413C28.925676 238.35675 26.199308 228.88692 24.315557 219.23337L126.72991 199.24867C127.44574 202.91702 128.48175 206.51556 129.82608 210.00298Z" fill-rule="nonzero"/><path fill="#dfe1e2" d="M47.05125 276.62836C41.26011 267.42435 36.374638 257.68073 32.463356 247.53413L129.82608 210.00298C131.31236 213.85867 133.16884 217.56125 135.36948 221.05878Z" fill-rule="nonzero"/><path fill="#86b98e" d="M72.060745 307.55252C62.531303 298.2692 54.1362 287.88867 47.05125 276.62836L135.36948 221.05878C138.06175 225.33769 141.25189 229.28229 144.87308 232.80997Z" fill-rule="nonzero"/><path fill="#eff6fb" d="M104.40351 332.2015C92.66595 325.3226 81.80578 317.0459 72.060745 307.55252L144.87308 232.80997C148.57619 236.41743 152.70306 239.56259 157.16333 242.17657Z" fill-rule="nonzero"/><path fill="#aacdec" d="M151.75124 351.01196C135.10556 347.18082 119.1401 340.838 104.40351 332.2015L157.16333 242.17657C162.76324 245.45844 168.83011 247.86871 175.15547 249.32454Z" fill-rule="nonzero"/><path fill="#1a4480" d="M211.67941 353.83215C191.69566 356.48886 171.39717 355.53363 151.75124 351.01196L175.15547 249.32454C182.62093 251.04279 190.33435 251.40578 197.92818 250.39621Z" fill-rule="nonzero"/></svg>