<svg width="438" height="558" viewBox="0 0 438 558" fill="none" xmlns="http://www.w3.org/2000/svg">
<path d="M124.143 13V40.25C124.143 47.4772 127.018 54.4083 132.135 59.5187C137.252 64.629 144.192 67.5 151.429 67.5H315.143C322.379 67.5 329.32 70.371 334.437 75.4813C339.554 80.5917 342.429 87.5229 342.429 94.75C342.429 101.977 339.554 108.908 334.437 114.019C329.32 119.129 322.379 122 315.143 122H96.8571C89.6205 122 82.6803 124.871 77.5632 129.981C72.4462 135.092 69.5714 142.023 69.5714 149.25C69.5714 156.477 72.4462 163.408 77.5632 168.519C82.6803 173.629 89.6205 176.5 96.8571 176.5H260.571C267.808 176.5 274.748 179.371 279.865 184.481C284.982 189.592 287.857 196.523 287.857 203.75C287.857 210.977 284.982 217.908 279.865 223.019C274.748 228.129 267.808 231 260.571 231H42.2857C35.0491 231 28.1089 233.871 22.9918 238.981C17.8747 244.092 15 251.023 15 258.25V258.25C15 265.477 17.8747 272.408 22.9918 277.519C28.1089 282.629 35.0491 285.5 42.2857 285.5H315.143C322.379 285.5 329.32 288.371 334.437 293.481C339.554 298.592 342.429 305.523 342.429 312.75C342.429 319.977 339.554 326.908 334.437 332.019C329.32 337.129 322.379 340 315.143 340H96.8571C89.6205 340 82.6803 342.871 77.5632 347.981C72.4462 353.092 69.5714 360.023 69.5714 367.25C69.5714 374.477 72.4462 381.408 77.5632 386.519C82.6803 391.629 89.6205 394.5 96.8571 394.5H369.714C376.951 394.5 383.891 397.371 389.008 402.481C394.125 407.592 397 414.523 397 421.75C397 428.977 394.125 435.908 389.008 441.019C383.891 446.129 376.951 449 369.714 449H206C198.763 449 191.823 451.871 186.706 456.981C181.589 462.092 178.714 469.023 178.714 476.25V476.25C178.714 483.477 181.589 490.408 186.706 495.519C191.823 500.629 198.763 503.5 206 503.5H260.571C267.808 503.5 274.748 506.371 279.865 511.481C284.982 516.592 287.857 523.523 287.857 530.75V558" stroke="#D9E8F6" stroke-width="30" stroke-miterlimit="10"/>
<path d="M150.143 0V27.25C150.143 34.4772 153.018 41.4083 158.135 46.5187C163.252 51.629 170.192 54.5 177.429 54.5H341.143C348.379 54.5 355.32 57.371 360.437 62.4813C365.554 67.5917 368.429 74.5229 368.429 81.75C368.429 88.9772 365.554 95.9083 360.437 101.019C355.32 106.129 348.379 109 341.143 109H122.857C115.621 109 108.68 111.871 103.563 116.981C98.4462 122.092 95.5714 129.023 95.5714 136.25C95.5714 143.477 98.4462 150.408 103.563 155.519C108.68 160.629 115.621 163.5 122.857 163.5H286.571C293.808 163.5 300.748 166.371 305.865 171.481C310.982 176.592 313.857 183.523 313.857 190.75C313.857 197.977 310.982 204.908 305.865 210.019C300.748 215.129 293.808 218 286.571 218H68.2857C61.0491 218 54.1089 220.871 48.9918 225.981C43.8747 231.092 41 238.023 41 245.25V245.25C41 252.477 43.8747 259.408 48.9918 264.519C54.1089 269.629 61.0491 272.5 68.2857 272.5H341.143C348.379 272.5 355.32 275.371 360.437 280.481C365.554 285.592 368.429 292.523 368.429 299.75C368.429 306.977 365.554 313.908 360.437 319.019C355.32 324.129 348.379 327 341.143 327H122.857C115.621 327 108.68 329.871 103.563 334.981C98.4462 340.092 95.5714 347.023 95.5714 354.25C95.5714 361.477 98.4462 368.408 103.563 373.519C108.68 378.629 115.621 381.5 122.857 381.5H395.714C402.951 381.5 409.891 384.371 415.008 389.481C420.125 394.592 423 401.523 423 408.75C423 415.977 420.125 422.908 415.008 428.019C409.891 433.129 402.951 436 395.714 436H232C224.763 436 217.823 438.871 212.706 443.981C207.589 449.092 204.714 456.023 204.714 463.25V463.25C204.714 470.477 207.589 477.408 212.706 482.519C217.823 487.629 224.763 490.5 232 490.5H286.571C293.808 490.5 300.748 493.371 305.865 498.481C310.982 503.592 313.857 510.523 313.857 517.75V545" stroke="#73B3E7" stroke-width="30" stroke-miterlimit="10"/>
</svg>
