<svg width="352px" height="567px" viewBox="0 0 352 567" version="1.1" xmlns="http://www.w3.org/2000/svg" xmlns:xlink="http://www.w3.org/1999/xlink">
    <g id="Page-1" stroke="none" stroke-width="1" fill="none" fill-rule="evenodd">
        <g id="Group" transform="translate(12.000000, 0.000000)" stroke-width="24">
            <path d="M90.8572618,9 L90.8572618,36.9 C90.8572618,44.2995919 93.2505864,51.3960209 97.510288,56.6283204 C101.76999,61.8605174 107.547267,64.8 113.571785,64.8 L249.857262,64.8 C255.880948,64.8 261.659058,67.7394826 265.918759,72.9716796 C270.178461,78.2039791 272.571785,85.3005105 272.571785,92.7 C272.571785,100.099387 270.178461,107.195714 265.918759,112.428628 C261.659058,117.660517 255.880948,120.6 249.857262,120.6 L68.1428215,120.6 C62.1186361,120.6 56.3411921,123.539483 52.0814073,128.771372 C47.8217058,134.004286 45.4285476,141.100613 45.4285476,148.5 C45.4285476,155.899387 47.8217058,162.995714 52.0814073,168.228628 C56.3411921,173.460517 62.1186361,176.4 68.1428215,176.4 L204.428215,176.4 C210.452733,176.4 216.23001,179.339483 220.489712,184.571372 C224.749414,189.804286 227.142738,196.900613 227.142738,204.3 C227.142738,211.699387 224.749414,218.795714 220.489712,224.028628 C216.23001,229.260517 210.452733,232.2 204.428215,232.2 L22.7142738,232.2 C16.6900885,232.2 10.9126445,235.139483 6.65285969,240.371372 C2.39307487,245.604286 -2.84217094e-14,252.700613 -2.84217094e-14,260.1 L-2.84217094e-14,260.1 C-2.84217094e-14,267.499387 2.39307487,274.595714 6.65285969,279.828628 C10.9126445,285.060517 16.6900885,288 22.7142738,288 L249.857262,288 C255.880948,288 261.659058,290.939483 265.918759,296.171372 C270.178461,301.404286 272.571785,308.500613 272.571785,315.9 C272.571785,323.299387 270.178461,330.395714 265.918759,335.628628 C261.659058,340.860517 255.880948,343.8 249.857262,343.8 L68.1428215,343.8 C62.1186361,343.8 56.3411921,346.739483 52.0814073,351.971372 C47.8217058,357.204286 45.4285476,364.300613 45.4285476,371.7 C45.4285476,379.099387 47.8217058,386.195714 52.0814073,391.428628 C56.3411921,396.660517 62.1186361,399.6 68.1428215,399.6 L295.285476,399.6 C301.309995,399.6 307.087272,402.539483 311.346974,407.771372 C315.606675,413.004286 318,420.100613 318,427.5 C318,434.899387 315.606675,441.995714 311.346974,447.228628 C307.087272,452.460517 301.309995,455.4 295.285476,455.4 L159,455.4 C152.975482,455.4 147.198204,458.339483 142.938503,463.571372 C138.678801,468.804286 136.285476,475.900613 136.285476,483.3 L136.285476,483.3 C136.285476,490.699387 138.678801,497.795714 142.938503,503.028628 C147.198204,508.260517 152.975482,511.2 159,511.2 L204.428215,511.2 C210.452733,511.2 216.23001,514.139483 220.489712,519.371372 C224.749414,524.604286 227.142738,531.700613 227.142738,539.1 L227.142738,567" id="Path" stroke="#D9E8F6"></path>
            <path d="M100.857262,-1.13686838e-13 L100.857262,27.9 C100.857262,35.2995919 103.250586,42.3960209 107.510288,47.6283204 C111.76999,52.8605174 117.547267,55.8 123.571785,55.8 L259.857262,55.8 C265.880948,55.8 271.659058,58.7394826 275.918759,63.9716796 C280.178461,69.2039791 282.571785,76.3005105 282.571785,83.7 C282.571785,91.0995919 280.178461,98.1960209 275.918759,103.428628 C271.659058,108.660517 265.880948,111.6 259.857262,111.6 L78.1427382,111.6 C72.1190524,111.6 66.3409424,114.539483 62.0812408,119.771372 C57.8217058,125.004286 55.4285476,132.100613 55.4285476,139.5 C55.4285476,146.899387 57.8217058,153.995714 62.0812408,159.228628 C66.3409424,164.460517 72.1190524,167.4 78.1427382,167.4 L214.428215,167.4 C220.452733,167.4 226.23001,170.339483 230.489712,175.571372 C234.749414,180.804286 237.142738,187.900613 237.142738,195.3 C237.142738,202.699387 234.749414,209.795714 230.489712,215.028628 C226.23001,220.260517 220.452733,223.2 214.428215,223.2 L32.7142738,223.2 C26.6900885,223.2 20.9126445,226.139483 16.6528597,231.371372 C12.3930749,236.604286 10,243.700613 10,251.1 L10,251.1 C10,258.499387 12.3930749,265.595714 16.6528597,270.828628 C20.9126445,276.060517 26.6900885,279 32.7142738,279 L259.857262,279 C265.880948,279 271.659058,281.939483 275.918759,287.171372 C280.178461,292.404286 282.571785,299.500613 282.571785,306.9 C282.571785,314.299387 280.178461,321.395714 275.918759,326.628628 C271.659058,331.860517 265.880948,334.8 259.857262,334.8 L78.1427382,334.8 C72.1190524,334.8 66.3409424,337.739483 62.0812408,342.971372 C57.8217058,348.204286 55.4285476,355.300613 55.4285476,362.7 C55.4285476,370.099387 57.8217058,377.195714 62.0812408,382.428628 C66.3409424,387.660517 72.1190524,390.6 78.1427382,390.6 L305.285476,390.6 C311.309995,390.6 317.087272,393.539483 321.346974,398.771372 C325.606675,404.004286 328,411.100613 328,418.5 C328,425.899387 325.606675,432.995714 321.346974,438.228628 C317.087272,443.460517 311.309995,446.4 305.285476,446.4 L169,446.4 C162.975482,446.4 157.198204,449.339483 152.938503,454.571372 C148.678801,459.804286 146.285476,466.900613 146.285476,474.3 L146.285476,474.3 C146.285476,481.699387 148.678801,488.795714 152.938503,494.028628 C157.198204,499.260517 162.975482,502.2 169,502.2 L214.428215,502.2 C220.452733,502.2 226.23001,505.139483 230.489712,510.371372 C234.749414,515.604286 237.142738,522.700613 237.142738,530.1 L237.142738,558" id="Path" stroke="#73B3E7"></path>
        </g>
    </g>
</svg>